<svg xmlns="http://www.w3.org/2000/svg" viewBox="0 0 64 64" width="64" height="64" role="img" aria-label="ImaginePDF">
  <!-- <=32px cut: letter fattened and tile radius tightened. Same flat fold
       tint as the full cut, so the two never disagree. -->
  <path d="M7 0H46L64 18V57A7 7 0 0 1 57 64H7A7 7 0 0 1 0 57V7A7 7 0 0 1 7 0Z" fill="#E8433A"/>
  <path d="M46 0L64 18H48.4A2.4 2.4 0 0 1 46 15.6Z" fill="#F8A79B"/>
  <circle cx="30.5" cy="16" r="9.5" fill="#FFFFFF"/>
  <path d="M24 30H37A3 3 0 0 1 40 33V47C43 47 46.5 48 49 49.2L44.6 51.8C41.6 54.2 37.6 55.6 34 56H24A3 3 0 0 1 21 53V33A3 3 0 0 1 24 30Z" fill="#FFFFFF"/>
</svg>
